<svg width="1123" height="794" xmlns="http://www.w3.org/2000/svg" xmlns:xlink="http://www.w3.org/1999/xlink" overflow="hidden"><defs><clipPath id="clip0"><rect x="0" y="0" width="1123" height="794"/></clipPath><clipPath id="clip1"><rect x="0" y="0" width="331" height="331"/></clipPath><clipPath id="clip2"><rect x="0" y="0" width="331" height="331"/></clipPath><clipPath id="clip3"><rect x="0" y="0" width="331" height="331"/></clipPath><clipPath id="clip4"><rect x="791" y="0" width="332" height="331"/></clipPath><clipPath id="clip5"><rect x="791" y="0" width="332" height="331"/></clipPath><clipPath id="clip6"><rect x="791" y="0" width="332" height="331"/></clipPath><clipPath id="clip7"><rect x="791" y="462" width="333" height="332"/></clipPath><clipPath id="clip8"><rect x="791" y="462" width="333" height="332"/></clipPath><clipPath id="clip9"><rect x="791" y="462" width="333" height="332"/></clipPath><clipPath id="clip10"><rect x="0" y="461" width="332" height="333"/></clipPath><clipPath id="clip11"><rect x="0" y="461" width="332" height="333"/></clipPath><clipPath id="clip12"><rect x="0" y="461" width="332" height="333"/></clipPath></defs><g clip-path="url(#clip0)"><rect x="0" y="0" width="1123" height="793.98" fill="#FFFFFF"/><path d="M354.5 182.663C354.5 144.464 385.468 113.497 423.668 113.497L700.332 113.497C738.532 113.497 769.5 144.464 769.5 182.663L769.5 612.316C769.5 650.516 738.532 681.483 700.332 681.483L423.668 681.483C385.468 681.483 354.5 650.516 354.5 612.316Z" stroke="#000000" stroke-width="1.33393" stroke-miterlimit="8" fill="none" fill-rule="evenodd"/><path d="M466.198 203.495 657.802 203.495 657.802 280.356 658.368 280.779C692.039 308.494 713.5 350.437 713.5 397.38 713.5 480.833 645.671 548.486 562 548.486 478.329 548.486 410.5 480.833 410.5 397.38 410.5 350.437 431.961 308.494 465.632 280.779L466.198 280.356Z" stroke="#000000" stroke-width="1.33393" stroke-miterlimit="8" fill="none" fill-rule="evenodd"/><path d="M552.5 397.49C552.5 392.519 556.753 388.49 562 388.49 567.247 388.49 571.5 392.519 571.5 397.49 571.5 402.46 567.247 406.49 562 406.49 556.753 406.49 552.5 402.46 552.5 397.49Z" stroke="#000000" stroke-width="1.33393" stroke-miterlimit="8" fill="#FFFFFF" fill-rule="evenodd"/><text font-family="Calibri,Calibri_MSFontService,sans-serif" font-weight="400" font-size="24" transform="matrix(1 0 0 0.999975 532.184 378)">Robot</text><path d="M561.833 397.49 561.834 693.31 561.167 693.31 561.167 397.49ZM565.502 691.976 561.5 699.979 557.498 691.976Z" fill="#FF0000"/><path d="M561.5 397.156 857.327 397.157 857.327 397.824 561.5 397.823ZM855.993 393.488 863.997 397.49 855.993 401.492Z" fill="#00B050"/><path d="M133.5 397.49C133.5 393.624 136.634 390.49 140.5 390.49 144.366 390.49 147.5 393.624 147.5 397.49 147.5 401.356 144.366 404.49 140.5 404.49 136.634 404.49 133.5 401.356 133.5 397.49Z" stroke="#000000" stroke-width="1.33393" stroke-miterlimit="8" fill="none" fill-rule="evenodd"/><path d="M140.834 397.49 140.834 428.632 140.167 428.632 140.167 397.49ZM144.502 427.298 140.5 435.301 136.498 427.298Z" fill="#FF0000"/><path d="M9.26315e-07-0.333473 31.1417-0.333387 31.1417 0.33356-9.26315e-07 0.333473ZM29.8078-4.0016 37.8111 0.000105031 29.8078 4.00176Z" fill="#00B050" transform="matrix(-1.00003 0 0 1 140.312 397.49)"/><text fill="#FF0000" font-family="Cambria Math,Cambria Math_MSFontService,sans-serif" font-weight="400" font-size="24" transform="matrix(1 0 0 0.999975 554.6 721)">𝑥<tspan fill="#00B050" font-size="24" x="317.401" y="-318.008">𝑦</tspan><tspan font-size="13" x="-418.522" y="-279.007">𝑥</tspan><tspan fill="#00B050" font-size="13" x="-465.32" y="-320.008">𝑦</tspan></text><path d="M556 396.99C556 393.676 558.462 390.99 561.5 390.99 564.538 390.99 567 393.676 567 396.99 567 400.304 564.538 402.99 561.5 402.99 558.462 402.99 556 400.304 556 396.99Z" fill="#0000FF" fill-rule="evenodd"/><path d="M0 0 9.35784 9.35784" stroke="#0000FF" stroke-width="1.33389" stroke-miterlimit="8" fill="none" fill-rule="evenodd" transform="matrix(1.00003 0 0 -1 135.5 401.848)"/><path d="M144.858 401.848 135.5 392.49" stroke="#0000FF" stroke-width="1.33393" stroke-miterlimit="8" fill="none" fill-rule="evenodd"/><text font-family="Calibri,Calibri_MSFontService,sans-serif" font-weight="400" font-size="13" transform="matrix(1 0 0 0.999975 130.619 386)">Tag</text><g clip-path="url(#clip1)"><g clip-path="url(#clip2)"><g clip-path="url(#clip3)"><path d="M0 0 0 330.992 330.992 330.992 330.992 0 0 0Z" fill="#FFFFFF" transform="matrix(6.12339e-17 1 -1.00003 6.12323e-17 331 0)"/><path d="M33.0992 33.0992 33.0992 297.892 297.892 297.892 297.892 33.0992 33.0992 33.0992Z" transform="matrix(6.12339e-17 1 -1.00003 6.12323e-17 331 0)"/><path d="M66.1983 66.1983 66.1983 99.2975 99.2975 99.2975 99.2975 132.397 66.1983 132.397 66.1983 165.496 99.2975 165.496 99.2975 198.595 66.1983 198.595 66.1983 231.694 99.2975 231.694 99.2975 198.595 132.397 198.595 132.397 264.793 165.496 264.793 165.496 231.694 198.595 231.694 198.595 198.595 165.496 198.595 165.496 165.496 198.595 165.496 198.595 132.397 264.793 132.397 264.793 99.2975 231.694 99.2975 231.694 66.1983 165.496 66.1983 165.496 132.397 132.397 132.397 132.397 66.1983 66.1983 66.1983M231.694 198.595 231.694 264.793 264.793 264.793 264.793 198.595 231.694 198.595Z" fill="#FFFFFF" transform="matrix(6.12339e-17 1 -1.00003 6.12323e-17 331 0)"/></g></g></g><g clip-path="url(#clip4)"><g clip-path="url(#clip5)"><g clip-path="url(#clip6)"><path d="M0 0 0 330.992 330.992 330.992 330.992 0 0 0Z" fill="#FFFFFF" transform="matrix(6.12339e-17 1 -1.00003 6.12324e-17 1123 5.25155e-05)"/><path d="M33.0992 33.0992 33.0992 297.892 297.892 297.892 297.892 33.0992 33.0992 33.0992Z" transform="matrix(6.12339e-17 1 -1.00003 6.12324e-17 1123 5.25155e-05)"/><path d="M66.1983 66.1983 66.1983 99.2975 99.2975 99.2975 99.2975 132.397 66.1983 132.397 66.1983 165.496 99.2975 165.496 99.2975 132.397 132.397 132.397 132.397 66.1983 66.1983 66.1983M165.496 66.1983 165.496 99.2975 198.595 99.2975 198.595 132.397 231.694 132.397 231.694 99.2975 264.793 99.2975 264.793 66.1983 165.496 66.1983M132.397 165.496 132.397 198.595 165.496 198.595 165.496 231.694 132.397 231.694 132.397 264.793 231.694 264.793 231.694 231.694 198.595 231.694 198.595 198.595 165.496 198.595 165.496 165.496 132.397 165.496M231.694 165.496 231.694 198.595 264.793 198.595 264.793 165.496 231.694 165.496Z" fill="#FFFFFF" transform="matrix(6.12339e-17 1 -1.00003 6.12324e-17 1123 5.25155e-05)"/></g></g></g><g clip-path="url(#clip7)"><g clip-path="url(#clip8)"><g clip-path="url(#clip9)"><path d="M0 0 0 330.992 330.992 330.992 330.992 0 0 0Z" fill="#FFFFFF" transform="matrix(6.12339e-17 1 -1.00003 6.12323e-17 1123 462.988)"/><path d="M33.0992 33.0992 33.0992 297.892 297.892 297.892 297.892 33.0992 33.0992 33.0992Z" transform="matrix(6.12339e-17 1 -1.00003 6.12323e-17 1123 462.988)"/><path d="M66.1983 66.1983 66.1983 99.2975 165.496 99.2975 165.496 165.496 132.397 165.496 132.397 198.595 99.2975 198.595 99.2975 132.397 66.1983 132.397 66.1983 231.694 99.2975 231.694 99.2975 264.793 165.496 264.793 165.496 231.694 132.397 231.694 132.397 198.595 165.496 198.595 165.496 165.496 231.694 165.496 231.694 198.595 198.595 198.595 198.595 231.694 231.694 231.694 231.694 198.595 264.793 198.595 264.793 66.1983 231.694 66.1983 231.694 99.2975 165.496 99.2975 165.496 66.1983 66.1983 66.1983Z" fill="#FFFFFF" transform="matrix(6.12339e-17 1 -1.00003 6.12323e-17 1123 462.988)"/></g></g></g><g clip-path="url(#clip10)"><g clip-path="url(#clip11)"><g clip-path="url(#clip12)"><path d="M0 0 0 331 331 331 331 0 0 0Z" fill="#FFFFFF" transform="matrix(6.14173e-17 1.003 -1 6.12308e-17 331 461.988)"/><path d="M33.1 33.1 33.1 297.9 297.9 297.9 297.9 33.1 33.1 33.1Z" transform="matrix(6.14173e-17 1.003 -1 6.12308e-17 331 461.988)"/><path d="M66.2 66.2 66.2 165.5 99.3 165.5 99.3 132.4 132.4 132.4 132.4 198.6 165.5 198.6 165.5 165.5 198.6 165.5 198.6 198.6 231.7 198.6 231.7 165.5 264.8 165.5 264.8 132.4 198.6 132.4 198.6 99.3 231.7 99.3 231.7 66.2 198.6 66.2 198.6 99.3 165.5 99.3 165.5 66.2 66.2 66.2M66.2 198.6 66.2 264.8 99.3 264.8 99.3 198.6 66.2 198.6M198.6 231.7 198.6 264.8 231.7 264.8 231.7 231.7 198.6 231.7Z" fill="#FFFFFF" transform="matrix(6.14173e-17 1.003 -1 6.12308e-17 331 461.988)"/></g></g></g><text fill="#BFBFBF" font-family="Calibri,Calibri_MSFontService,sans-serif" font-style="italic" font-weight="400" font-size="13" transform="matrix(1 0 0 0.999975 228.828 331)">36h11 ID:1<tspan font-size="13" x="606.385" y="0">36h11 ID:2</tspan><tspan font-size="13" x="606.16" y="140.004">36h11 ID:3</tspan><tspan font-size="13" x="0.102829" y="139.004">36h11 ID:4</tspan></text></g></svg>